<svg id="visual" viewBox="0 0 50 400" width="50" height="400" xmlns="http://www.w3.org/2000/svg" xmlns:xlink="http://www.w3.org/1999/xlink" version="1.1"><rect x="0" y="0" width="50" height="400" fill="#ffd803"></rect><defs><linearGradient id="grad1_0" x1="0%" y1="100%" x2="100%" y2="0%"><stop offset="30%" stop-color="#ffd803" stop-opacity="1"></stop><stop offset="70%" stop-color="#ffd803" stop-opacity="1"></stop></linearGradient></defs><defs><linearGradient id="grad2_0" x1="0%" y1="100%" x2="100%" y2="0%"><stop offset="30%" stop-color="#ffd803" stop-opacity="1"></stop><stop offset="70%" stop-color="#ffd803" stop-opacity="1"></stop></linearGradient></defs><g transform="translate(50, 400)"><path d="M-50 0C-41.3 -4.4 -32.5 -8.8 -29.4 -17C-26.4 -25.2 -29 -37.2 -25 -43.3C-21 -49.4 -10.5 -49.7 0 -50L0 0Z" fill="#ff5470"></path></g><g transform="translate(0, 0)"><path d="M50 0C49.6 10.4 49.3 20.8 43.3 25C37.3 29.2 25.7 27.2 17.5 30.3C9.3 33.4 4.7 41.7 0 50L0 0Z" fill="#ff5470"></path></g></svg>