<svg id="visual" viewBox="0 0 900 60" width="900" height="60" xmlns="http://www.w3.org/2000/svg" xmlns:xlink="http://www.w3.org/1999/xlink" version="1.1"><rect x="0" y="0" width="900" height="60" fill="#ff5470"></rect><path d="M0 36L16.7 31C33.3 26 66.7 16 100 12.2C133.3 8.3 166.7 10.7 200 15.8C233.3 21 266.7 29 300 29.3C333.3 29.7 366.7 22.3 400 16.2C433.3 10 466.7 5 500 7.8C533.3 10.7 566.7 21.3 600 25.7C633.3 30 666.7 28 700 22.8C733.3 17.7 766.7 9.3 800 6.5C833.3 3.7 866.7 6.3 883.3 7.7L900 9L900 61L883.3 61C866.7 61 833.3 61 800 61C766.7 61 733.3 61 700 61C666.7 61 633.3 61 600 61C566.7 61 533.3 61 500 61C466.7 61 433.3 61 400 61C366.7 61 333.3 61 300 61C266.7 61 233.3 61 200 61C166.7 61 133.3 61 100 61C66.7 61 33.3 61 16.7 61L0 61Z" fill="#ffd803" stroke-linecap="round" stroke-linejoin="miter"></path></svg>