<svg id="visual" viewBox="0 0 900 600" width="900" height="600" xmlns="http://www.w3.org/2000/svg" xmlns:xlink="http://www.w3.org/1999/xlink" version="1.1"><rect x="0" y="0" width="900" height="600" fill="#00214d"></rect><path d="M0 156L21.5 161.7C43 167.3 86 178.7 128.8 183.3C171.7 188 214.3 186 257.2 193.2C300 200.3 343 216.7 385.8 215.7C428.7 214.7 471.3 196.3 514.2 190.5C557 184.7 600 191.3 642.8 191.2C685.7 191 728.3 184 771.2 191C814 198 857 219 878.5 229.5L900 240L900 0L878.5 0C857 0 814 0 771.2 0C728.3 0 685.7 0 642.8 0C600 0 557 0 514.2 0C471.3 0 428.7 0 385.8 0C343 0 300 0 257.2 0C214.3 0 171.7 0 128.8 0C86 0 43 0 21.5 0L0 0Z" fill="#ffd803"></path><path d="M0 155L21.5 162.2C43 169.3 86 183.7 128.8 186.8C171.7 190 214.3 182 257.2 181.7C300 181.3 343 188.7 385.8 183.3C428.7 178 471.3 160 514.2 156C557 152 600 162 642.8 163.7C685.7 165.3 728.3 158.7 771.2 162C814 165.3 857 178.7 878.5 185.3L900 192L900 0L878.5 0C857 0 814 0 771.2 0C728.3 0 685.7 0 642.8 0C600 0 557 0 514.2 0C471.3 0 428.7 0 385.8 0C343 0 300 0 257.2 0C214.3 0 171.7 0 128.8 0C86 0 43 0 21.5 0L0 0Z" fill="#ffb326"></path><path d="M0 93L21.5 99.5C43 106 86 119 128.8 121.3C171.7 123.7 214.3 115.3 257.2 115.8C300 116.3 343 125.7 385.8 123.3C428.7 121 471.3 107 514.2 107.8C557 108.7 600 124.3 642.8 132.2C685.7 140 728.3 140 771.2 136.2C814 132.3 857 124.7 878.5 120.8L900 117L900 0L878.5 0C857 0 814 0 771.2 0C728.3 0 685.7 0 642.8 0C600 0 557 0 514.2 0C471.3 0 428.7 0 385.8 0C343 0 300 0 257.2 0C214.3 0 171.7 0 128.8 0C86 0 43 0 21.5 0L0 0Z" fill="#ff903e"></path><path d="M0 105L21.5 103.7C43 102.3 86 99.7 128.8 97.3C171.7 95 214.3 93 257.2 92.7C300 92.3 343 93.7 385.8 96.3C428.7 99 471.3 103 514.2 97.3C557 91.7 600 76.3 642.8 70.3C685.7 64.3 728.3 67.7 771.2 76.8C814 86 857 101 878.5 108.5L900 116L900 0L878.5 0C857 0 814 0 771.2 0C728.3 0 685.7 0 642.8 0C600 0 557 0 514.2 0C471.3 0 428.7 0 385.8 0C343 0 300 0 257.2 0C214.3 0 171.7 0 128.8 0C86 0 43 0 21.5 0L0 0Z" fill="#ff7155"></path><path d="M0 48L21.5 45.3C43 42.7 86 37.3 128.8 34.8C171.7 32.3 214.3 32.7 257.2 32.3C300 32 343 31 385.8 30.7C428.7 30.3 471.3 30.7 514.2 31.5C557 32.3 600 33.7 642.8 33.8C685.7 34 728.3 33 771.2 36.3C814 39.7 857 47.3 878.5 51.2L900 55L900 0L878.5 0C857 0 814 0 771.2 0C728.3 0 685.7 0 642.8 0C600 0 557 0 514.2 0C471.3 0 428.7 0 385.8 0C343 0 300 0 257.2 0C214.3 0 171.7 0 128.8 0C86 0 43 0 21.5 0L0 0Z" fill="#ff5470"></path></svg>